M48
; DRILL file {KiCad 8.0.1} date 2024-09-05T01:35:18+0000
; FORMAT={-:-/ absolute / metric / decimal}
; #@! TF.CreationDate,2024-09-05T01:35:18+00:00
; #@! TF.GenerationSoftware,Kicad,Pcbnew,8.0.1
; #@! TF.FileFunction,MixedPlating,1,6
FMAT,2
METRIC
; #@! TA.AperFunction,Plated,PTH,ViaDrill
T1C0.300
; #@! TA.AperFunction,Plated,PTH,ComponentDrill
T2C0.800
; #@! TA.AperFunction,Plated,PTH,ComponentDrill
T3C0.800
; #@! TA.AperFunction,Plated,PTH,ComponentDrill
T4C1.000
; #@! TA.AperFunction,Plated,PTH,ComponentDrill
T5C1.900
; #@! TA.AperFunction,Plated,PTH,ComponentDrill
T6C2.200
; #@! TA.AperFunction,NonPlated,NPTH,ComponentDrill
T7C1.300
; #@! TA.AperFunction,NonPlated,NPTH,ComponentDrill
T8C2.300
%
G90
G05
T1
X127.545Y-109.746
X127.565Y-102.803
X127.574Y-108.944
X127.575Y-103.724
X127.575Y-104.565
X127.585Y-105.506
X127.621Y-96.514
X127.621Y-97.463
X127.635Y-98.425
X128.446Y-81.612
X128.524Y-86.614
X129.159Y-92.71
X129.275Y-103.563
X129.319Y-79.469
X129.345Y-97.156
X129.347Y-104.465
X129.367Y-105.315
X129.38Y-108.977
X129.413Y-98.044
X129.447Y-109.777
X129.46Y-85.678
X130.81Y-104.14
X131.191Y-109.982
X132.715Y-100.771
X132.874Y-97.409
X133.64Y-72.798
X133.985Y-91.567
X134.239Y-93.599
X134.239Y-94.869
X134.273Y-92.42
X135.382Y-91.694
X135.509Y-96.809
X135.763Y-99.822
X135.958Y-103.117
X136.017Y-108.712
X136.398Y-105.664
X136.525Y-91.694
X137.795Y-94.869
X137.922Y-86.741
X138.049Y-97.409
X138.271Y-119.397
X138.271Y-120.307
X138.271Y-121.216
X138.271Y-122.126
X138.303Y-94.107
X138.43Y-114.046
X138.592Y-92.165
X138.684Y-94.869
X138.926Y-107.668
X138.933Y-123.091
X138.938Y-101.092
X139.065Y-97.155
X139.065Y-114.046
X139.192Y-92.964
X139.319Y-90.297
X139.7Y-114.046
X139.954Y-92.202
X139.991Y-70.321
X140.589Y-86.36
X140.97Y-82.55
X140.97Y-110.617
X141.415Y-89.165
X141.762Y-105.184
X142.495Y-91.441
X142.748Y-89.027
X142.862Y-115.166
X142.933Y-116.117
X143.042Y-70.318
X143.383Y-119.761
X143.383Y-120.65
X143.383Y-121.666
X143.383Y-122.555
X143.383Y-123.444
X143.385Y-100.259
X143.385Y-101.148
X143.385Y-102.037
X143.385Y-102.926
X143.655Y-69.528
X143.667Y-117.025
X143.766Y-104.323
X144.018Y-93.091
X144.018Y-111.379
X144.018Y-112.903
X144.272Y-110.236
X144.343Y-85.6
X144.526Y-121.793
X144.611Y-123.089
X144.632Y-117.008
X145.037Y-113.294
X145.971Y-121.888
X145.991Y-122.722
X146.004Y-123.515
X146.05Y-104.521
X146.177Y-113.158
X146.304Y-94.488
X146.558Y-89.13
X147.193Y-109.474
X147.574Y-94.488
X147.696Y-92.08
X148.023Y-70.29
X148.082Y-95.885
X148.397Y-110.49
X149.642Y-91.061
X149.691Y-92.136
X150.622Y-104.775
X150.838Y-90.19
X151.257Y-103.632
X151.257Y-104.648
X151.378Y-108.149
X151.384Y-112.141
X151.638Y-91.059
X151.892Y-111.125
X152.146Y-100.457
X152.146Y-109.474
X152.273Y-107.926
X152.635Y-111.7
X152.908Y-93.726
X153.162Y-95.885
X153.252Y-104.14
X153.289Y-87.122
X153.416Y-92.075
X154.432Y-119.634
X154.559Y-110.363
X154.94Y-95.377
X155.067Y-92.329
X155.067Y-108.966
X155.956Y-109.347
X156.337Y-69.099
X156.337Y-86.487
X156.464Y-87.884
X156.591Y-110.236
X156.718Y-88.824
X156.845Y-118.999
X156.932Y-90.999
X157.07Y-108.028
X157.167Y-95.182
X157.23Y-102.671
X157.277Y-105.969
X157.281Y-104.983
X157.48Y-85.217
X157.607Y-119.761
X157.734Y-79.121
X157.734Y-101.346
X157.734Y-118.872
X157.87Y-103.799
X157.988Y-90.19
X158.29Y-102.948
X158.469Y-105.969
X158.581Y-95.888
X158.623Y-91.313
X158.623Y-94.615
X158.75Y-88.519
X159.004Y-85.725
X159.885Y-108.763
X159.93Y-87.375
X160.009Y-82.656
X160.02Y-85.725
X160.033Y-76.742
X160.274Y-91.158
X160.748Y-103.048
X160.902Y-100.559
X160.909Y-82.677
X160.909Y-85.852
X161.036Y-94.361
X161.29Y-77.47
X161.374Y-111.76
X161.504Y-105.112
X161.544Y-91.44
X161.676Y-70.988
X161.698Y-82.545
X161.925Y-85.979
X161.932Y-86.786
X162.179Y-108.204
X162.179Y-116.967
X162.306Y-116.076
X162.433Y-72.771
X162.486Y-82.686
X162.502Y-101.263
X162.727Y-121.37
X162.854Y-105.664
X163.195Y-79.248
X163.291Y-121.0
X163.322Y-121.666
X163.377Y-104.812
X163.449Y-82.55
X163.449Y-85.852
X163.449Y-111.76
X163.926Y-101.302
X164.211Y-83.058
X164.404Y-85.511
X164.592Y-86.741
X164.627Y-105.969
X164.644Y-112.174
X164.966Y-84.455
X165.406Y-89.252
X165.589Y-110.39
X165.876Y-110.893
X166.165Y-99.787
X166.37Y-114.935
X166.497Y-116.332
X166.646Y-117.504
X166.878Y-100.203
X166.878Y-110.49
X167.323Y-114.758
X167.894Y-110.49
X168.136Y-100.989
X168.335Y-104.548
X168.529Y-85.344
X168.656Y-80.01
X168.783Y-99.949
X168.91Y-71.12
X168.91Y-72.39
X168.91Y-109.22
X169.037Y-110.49
X169.418Y-94.996
X169.713Y-114.844
X169.926Y-99.949
X169.926Y-117.856
X170.307Y-105.664
X170.434Y-123.952
X170.561Y-83.82
X170.561Y-118.364
X170.621Y-86.846
X170.815Y-115.062
X171.126Y-71.35
X171.126Y-72.211
X171.126Y-73.017
X171.126Y-73.851
X171.126Y-74.676
X171.323Y-102.87
X171.438Y-94.66
X171.45Y-83.185
X171.45Y-119.38
X171.704Y-120.65
X171.831Y-105.537
X172.085Y-112.758
X172.136Y-95.385
X172.339Y-101.6
X172.536Y-96.2
X172.72Y-119.38
X172.974Y-111.887
X173.018Y-100.54
X173.99Y-111.887
X174.244Y-119.38
X174.286Y-115.453
X174.498Y-90.101
X174.552Y-94.678
X174.625Y-95.758
X175.26Y-119.126
X175.382Y-109.606
X175.387Y-115.316
X175.542Y-94.539
X175.768Y-88.138
X175.895Y-101.727
X176.0Y-104.648
X176.014Y-100.074
X176.53Y-117.602
X176.53Y-124.079
X176.784Y-94.234
X177.546Y-117.776
X177.673Y-123.19
X177.8Y-121.539
X178.054Y-89.281
X178.4Y-95.083
X178.787Y-102.721
X178.943Y-103.759
X178.943Y-108.204
X178.943Y-115.443
X179.064Y-110.928
X179.07Y-110.109
X180.086Y-89.408
X180.086Y-110.998
X180.213Y-109.728
X180.594Y-115.443
X180.594Y-124.079
X180.82Y-110.681
X180.826Y-111.958
X180.848Y-89.947
X181.032Y-86.239
X181.349Y-103.893
X181.356Y-117.094
X181.459Y-85.44
X181.513Y-121.978
X181.61Y-94.742
X181.921Y-86.239
X182.245Y-115.824
X182.372Y-123.19
X182.372Y-85.471
X182.499Y-98.933
X182.81Y-86.239
X183.007Y-100.076
X183.227Y-73.607
X183.244Y-76.122
X183.26Y-74.84
X183.343Y-81.845
X183.359Y-80.596
X183.786Y-86.752
X183.896Y-109.601
X183.896Y-117.094
X184.258Y-100.062
X184.404Y-123.19
X184.426Y-76.883
X184.541Y-95.645
X184.858Y-117.369
X185.143Y-100.221
X185.42Y-102.362
X185.525Y-81.159
X185.542Y-74.484
X185.542Y-75.367
X185.542Y-82.042
X185.559Y-76.284
X185.901Y-99.966
X185.985Y-86.747
X186.075Y-117.01
X186.436Y-100.644
X186.563Y-122.936
X186.641Y-81.509
X186.817Y-84.455
X186.818Y-116.213
X187.198Y-102.616
X187.255Y-89.541
X187.325Y-101.219
X187.543Y-117.094
X187.833Y-120.904
X188.087Y-95.25
X188.214Y-86.106
X188.233Y-100.059
X188.595Y-107.061
X188.722Y-117.094
X188.849Y-120.396
X189.103Y-101.854
X189.865Y-88.392
X189.865Y-99.441
X189.992Y-112.358
X190.305Y-102.294
X190.881Y-66.04
X190.966Y-106.896
X191.262Y-112.758
X191.349Y-88.99
X191.643Y-83.058
X191.736Y-107.735
X191.77Y-120.777
X191.902Y-98.928
X192.003Y-76.241
X192.024Y-72.644
X192.024Y-73.66
X192.024Y-74.676
X192.532Y-75.438
X192.659Y-111.76
X192.659Y-123.063
X193.019Y-76.241
X193.04Y-74.676
X193.04Y-99.314
X193.355Y-92.101
X193.548Y-75.438
X193.929Y-99.813
X193.929Y-111.76
X194.056Y-74.676
X194.183Y-117.221
X194.31Y-88.265
X194.472Y-107.315
X194.691Y-123.19
X194.772Y-102.062
X195.072Y-74.676
X195.199Y-111.887
X195.323Y-92.301
X195.325Y-95.976
X195.453Y-106.553
X195.615Y-102.375
X195.793Y-95.325
X195.834Y-117.221
X195.88Y-92.875
X195.961Y-114.3
X196.088Y-89.328
X196.383Y-107.442
X196.399Y-90.678
X196.469Y-91.694
X196.593Y-95.35
X196.723Y-100.965
X196.723Y-101.854
X196.85Y-123.317
X196.934Y-115.335
X196.977Y-82.169
X197.104Y-111.76
X197.104Y-116.967
X197.231Y-113.411
X197.231Y-116.078
X197.29Y-106.511
X197.358Y-100.076
X197.866Y-66.802
X197.866Y-67.818
X198.12Y-96.587
X198.247Y-120.777
X198.374Y-58.801
X198.374Y-92.329
X198.501Y-95.377
X198.755Y-80.264
X198.764Y-91.518
X198.882Y-60.706
X198.882Y-61.722
X198.882Y-62.738
X198.882Y-63.754
X198.882Y-64.77
X198.882Y-65.786
X198.882Y-66.802
X198.882Y-67.818
X198.882Y-96.961
X199.009Y-83.947
X199.339Y-95.707
X199.629Y-89.85
X199.644Y-97.536
X200.152Y-107.442
X200.336Y-101.924
X200.794Y-95.377
X201.041Y-90.932
X201.041Y-111.76
X201.168Y-92.329
X201.626Y-100.153
X201.676Y-107.188
X201.676Y-110.744
X201.818Y-99.376
X201.93Y-97.79
X201.93Y-116.967
X202.057Y-85.471
X202.399Y-99.947
X202.565Y-90.17
X202.692Y-94.615
X202.692Y-106.934
X202.819Y-102.997
X203.008Y-105.985
X203.2Y-85.09
X203.454Y-109.728
X203.581Y-108.585
X204.216Y-103.886
X204.216Y-105.029
X204.343Y-90.678
T2
X120.396Y-97.171
X120.396Y-99.171
X120.396Y-105.172
X120.396Y-107.172
X120.396Y-113.062
X120.396Y-115.062
T3
X122.0Y-69.368
X122.0Y-71.368
X122.0Y-73.368
X122.0Y-75.368
X122.0Y-77.368
X122.0Y-79.368
X122.0Y-81.368
X122.0Y-83.368
X122.0Y-85.368
X122.0Y-87.368
X122.0Y-89.368
X124.0Y-69.368
X124.0Y-71.368
X124.0Y-73.368
X124.0Y-75.368
X124.0Y-77.368
X124.0Y-79.368
X124.0Y-81.368
X124.0Y-83.368
X124.0Y-85.368
X124.0Y-87.368
X124.0Y-89.368
X126.27Y-118.872
X126.27Y-120.872
X128.27Y-118.872
X128.27Y-120.872
X133.636Y-118.822
X133.636Y-120.822
X135.636Y-118.822
X135.636Y-120.822
T4
X124.895Y-116.622
X124.895Y-123.122
X129.645Y-116.622
X129.645Y-123.122
X132.261Y-116.572
X132.261Y-123.072
X137.011Y-116.572
X137.011Y-123.072
T5
X167.116Y-63.523
X167.116Y-68.523
X174.616Y-63.523
X174.616Y-68.523
X178.416Y-63.523
X178.416Y-68.523
X185.916Y-63.523
X185.916Y-68.523
T6
X152.79Y-61.357
X156.79Y-61.357
T7
X118.9Y-68.168
T8
X148.29Y-62.357
X161.29Y-62.357
M30
