M48
; DRILL file {KiCad 8.0.1} date 2024-09-13T03:07:37+0000
; FORMAT={-:-/ absolute / metric / decimal}
; #@! TF.CreationDate,2024-09-13T03:07:37+00:00
; #@! TF.GenerationSoftware,Kicad,Pcbnew,8.0.1
; #@! TF.FileFunction,MixedPlating,1,4
FMAT,2
METRIC
; #@! TA.AperFunction,Plated,PTH,ViaDrill
T1C0.300
; #@! TA.AperFunction,Plated,PTH,ViaDrill
T2C0.400
; #@! TA.AperFunction,Plated,PTH,ComponentDrill
T3C0.600
; #@! TA.AperFunction,Plated,PTH,ComponentDrill
T4C0.700
; #@! TA.AperFunction,Plated,PTH,ComponentDrill
T5C0.700
; #@! TA.AperFunction,Plated,PTH,ComponentDrill
T6C1.100
; #@! TA.AperFunction,Plated,PTH,ComponentDrill
T7C1.500
; #@! TA.AperFunction,Plated,PTH,ComponentDrill
T8C1.800
; #@! TA.AperFunction,NonPlated,NPTH,ComponentDrill
T9C0.991
%
G90
G05
T1
X205.798Y-85.377
X205.843Y-88.967
X206.25Y-98.844
X207.115Y-90.614
X207.266Y-93.976
X207.627Y-95.175
X207.827Y-87.695
X207.979Y-92.514
X208.126Y-121.184
X208.158Y-120.317
X208.167Y-108.689
X208.199Y-96.7
X208.365Y-90.932
X208.368Y-89.535
X208.551Y-109.675
X208.627Y-94.489
X208.643Y-93.632
X208.765Y-115.736
X208.779Y-87.347
X208.841Y-102.68
X209.38Y-109.598
X209.428Y-93.355
X209.823Y-96.283
X209.85Y-104.475
X210.154Y-109.803
X210.157Y-85.315
X210.508Y-94.372
X211.104Y-89.294
X211.144Y-109.782
X211.282Y-106.972
X211.382Y-103.704
X211.407Y-83.662
X211.486Y-104.636
X211.63Y-95.445
X211.63Y-97.629
X211.699Y-82.917
X211.835Y-101.569
X212.705Y-83.605
X212.833Y-98.756
X213.008Y-105.348
X213.166Y-110.096
X213.221Y-102.091
X213.405Y-83.218
X213.528Y-92.646
X213.766Y-120.163
X213.774Y-121.216
X213.975Y-96.197
X214.47Y-116.048
X214.614Y-103.197
X214.709Y-101.944
X214.724Y-112.202
X214.735Y-107.556
X214.765Y-98.037
X215.736Y-85.072
X215.798Y-84.142
X215.803Y-94.537
X215.926Y-93.746
X216.152Y-120.545
X216.301Y-109.674
X216.388Y-83.461
X216.391Y-85.531
X216.468Y-96.894
X216.507Y-112.343
X216.819Y-84.252
X216.826Y-86.238
X217.093Y-103.401
X217.162Y-86.964
X218.002Y-93.849
X218.247Y-101.704
X218.386Y-92.61
X218.429Y-97.445
X218.597Y-89.985
X218.635Y-91.034
X218.653Y-95.122
X218.66Y-94.322
X218.703Y-119.331
X218.73Y-121.129
X218.917Y-114.253
X219.075Y-84.455
X219.08Y-93.008
X219.189Y-117.975
X219.222Y-87.757
X219.76Y-112.243
X220.022Y-87.757
X220.216Y-90.538
X220.393Y-120.857
X220.484Y-89.578
X220.834Y-119.196
X221.118Y-103.377
X221.344Y-89.929
X221.38Y-86.259
X221.839Y-119.943
X222.286Y-89.871
X223.045Y-120.596
X223.119Y-95.345
X223.152Y-90.857
X223.536Y-90.149
X223.561Y-91.695
X224.612Y-115.34
X225.425Y-106.668
X225.98Y-88.337
X226.095Y-94.691
X226.146Y-121.239
X226.156Y-118.795
X226.44Y-95.239
X226.628Y-97.432
X226.66Y-82.344
X226.98Y-82.876
X227.287Y-82.321
X227.449Y-88.265
X227.631Y-82.87
X227.838Y-103.124
X227.862Y-85.707
X227.868Y-96.913
X227.877Y-104.032
X227.906Y-82.311
X227.913Y-92.267
X227.973Y-91.442
X228.037Y-101.76
X228.244Y-87.59
X228.271Y-113.573
X228.271Y-114.542
X228.281Y-82.859
X228.854Y-106.172
X228.854Y-107.442
X228.906Y-108.059
X229.044Y-87.207
X229.047Y-84.828
X229.34Y-106.806
X229.846Y-101.85
X229.919Y-87.543
X230.007Y-91.739
X231.092Y-99.694
X231.238Y-86.847
X231.238Y-87.467
X231.419Y-99.142
X231.419Y-100.247
X231.707Y-100.8
X231.712Y-93.181
X231.715Y-99.702
X231.775Y-87.144
X231.788Y-86.512
X232.011Y-104.636
X232.02Y-92.63
X232.034Y-100.255
X232.163Y-98.817
X232.167Y-118.82
X232.194Y-97.268
X232.202Y-121.239
X232.257Y-95.685
X232.319Y-87.467
X232.331Y-86.209
X232.331Y-86.841
X232.337Y-99.718
X232.337Y-100.815
X232.344Y-93.165
X232.466Y-117.684
X232.636Y-92.605
X232.656Y-100.255
X232.676Y-93.699
X232.727Y-102.709
X232.856Y-97.717
X232.868Y-85.887
X232.875Y-86.525
X232.875Y-87.157
X232.96Y-99.718
X232.968Y-93.132
X233.26Y-92.589
X233.279Y-99.165
X233.462Y-82.49
X233.475Y-85.899
X233.783Y-83.022
X233.9Y-92.589
X233.91Y-99.149
X234.05Y-119.095
X234.09Y-82.466
X234.095Y-85.893
X234.433Y-83.016
X234.532Y-92.605
X234.54Y-99.142
X234.631Y-112.284
X234.709Y-82.456
X234.733Y-85.893
X234.906Y-105.578
X235.084Y-83.005
X235.256Y-119.893
X235.3Y-116.075
X235.308Y-113.739
X236.537Y-120.646
X236.725Y-97.238
X236.731Y-97.888
X236.742Y-98.539
X236.742Y-103.963
X236.746Y-95.939
X236.748Y-104.614
X236.759Y-105.264
X236.769Y-90.333
X236.774Y-90.984
X236.786Y-91.634
X237.068Y-102.858
X237.257Y-96.917
X237.274Y-103.643
X237.281Y-97.545
X237.298Y-104.27
X237.301Y-90.013
X237.308Y-104.889
X237.324Y-90.64
X237.334Y-91.259
X237.826Y-102.603
X237.831Y-103.253
X237.837Y-95.895
X237.843Y-96.545
X237.843Y-103.904
X237.854Y-97.196
X237.887Y-89.595
X237.892Y-90.246
X237.904Y-90.896
X237.965Y-115.575
X238.358Y-102.283
X238.369Y-95.575
X238.381Y-102.91
X238.391Y-103.529
X238.392Y-96.202
X238.403Y-96.821
X238.418Y-89.275
X238.442Y-89.903
X238.452Y-90.521
X239.138Y-88.925
X239.637Y-121.117
X239.652Y-119.33
X239.854Y-113.581
X239.854Y-115.878
X241.138Y-110.559
X241.351Y-98.874
X241.356Y-99.525
X241.368Y-100.175
X241.43Y-86.266
X241.435Y-86.916
X241.447Y-87.567
X241.883Y-98.554
X241.906Y-99.181
X241.916Y-99.8
X241.962Y-85.945
X241.985Y-86.573
X241.995Y-87.192
T2
X219.075Y-96.637
X222.823Y-101.483
X223.234Y-88.075
X223.574Y-99.766
X223.815Y-101.664
X224.536Y-102.616
X225.216Y-97.748
T3
X206.036Y-96.52
X206.036Y-100.22
T4
X208.044Y-114.475
X213.824Y-114.475
T6
X216.935Y-118.368
X227.935Y-118.368
X230.435Y-118.368
X241.435Y-118.368
T7
X238.897Y-86.36
X238.897Y-92.928
X238.897Y-99.496
T8
X219.935Y-108.368
X224.935Y-108.368
X233.435Y-108.368
X238.435Y-108.368
T9
X209.602Y-99.962
X217.222Y-98.947
X217.222Y-100.977
T5
X206.614Y-114.435G85X206.614Y-113.435
G05
X206.614Y-118.475G85X206.614Y-117.775
G05
X215.254Y-114.435G85X215.254Y-113.435
G05
X215.254Y-118.475G85X215.254Y-117.775
G05
M30
